<?xml version="1.0" ?>
<!-- Uploaded to: SVG Repo, www.svgrepo.com, Generator: SVG Repo Mixer Tools -->
<svg width="800px" height="800px" viewBox="-0.57 0 7.4083376 7.4083376" id="svg8" version="1.1" xmlns="http://www.w3.org/2000/svg" xmlns:cc="http://creativecommons.org/ns#" xmlns:dc="http://purl.org/dc/elements/1.1/" xmlns:rdf="http://www.w3.org/1999/02/22-rdf-syntax-ns#" xmlns:svg="http://www.w3.org/2000/svg">
<defs id="defs2"/>
<g id="layer1" transform="translate(-44.011789,-320.81248)">
<path d="m 173.00195,122 c -0.55226,-0.002 -1.00169,0.44383 -1.0039,0.99609 v 4.00196 c -0.0303,1.36326 2.03026,1.36326 2,0 V 124 h 14.0039 v 24 h -14.0039 v -2.99805 c 0.0303,-1.36326 -2.03026,-1.36326 -2,0 v 4.00196 c 0.002,0.55226 0.45164,0.99819 1.0039,0.99609 h 15.9961 c 0.55226,0.002 1.00169,-0.44383 1.0039,-0.99609 v -26.00782 c -0.002,-0.55226 -0.45164,-0.99819 -1.0039,-0.99609 z m -0.0156,7.3457 c -3.65973,0 -6.64258,2.99068 -6.64258,6.65039 0,3.65976 2.98285,6.64453 6.64258,6.64453 3.65973,0 6.65234,-2.98477 6.65234,-6.64453 0,-3.65971 -2.99261,-6.65039 -6.65234,-6.65039 z m 0,2 c 2.57885,0 4.65234,2.07155 4.65234,4.65039 0,2.57889 -2.07349,4.64258 -4.65234,4.64258 -2.57885,0 -4.64258,-2.06369 -4.64258,-4.64258 0,-2.57884 2.06373,-4.65039 4.64258,-4.65039 z m -2.81836,3.24024 1.41406,1.41406 -1.41406,1.41406 c -0.86543,0.94317 0.47283,2.28144 1.41601,1.41602 l 1.41407,-1.41406 1.41406,1.41406 c 0.94376,0.9866 2.40327,-0.4709 1.41797,-1.41602 L 174.41602,136 l 1.41406,-1.41406 c 0.93611,-0.93611 -0.47973,-2.35621 -1.41797,-1.41797 l -1.41406,1.41406 -1.41407,-1.41406 c -0.97013,-0.97013 -2.37322,0.46076 -1.41601,1.41797 z" id="icon-20" style="color:#000000;font-style:normal;font-variant:normal;font-weight:normal;font-stretch:normal;font-size:medium;line-height:normal;font-family:sans-serif;font-variant-ligatures:normal;font-variant-position:normal;font-variant-caps:normal;font-variant-numeric:normal;font-variant-alternates:normal;font-feature-settings:normal;text-indent:0;text-align:start;text-decoration:none;text-decoration-line:none;text-decoration-style:solid;text-decoration-color:#000000;letter-spacing:normal;word-spacing:normal;text-transform:none;writing-mode:lr-tb;direction:ltr;text-orientation:mixed;dominant-baseline:auto;baseline-shift:baseline;text-anchor:start;white-space:normal;shape-padding:0;clip-rule:nonzero;display:inline;overflow:visible;visibility:visible;opacity:1;isolation:auto;mix-blend-mode:normal;color-interpolation:sRGB;color-interpolation-filters:linearRGB;solid-color:#000000;solid-opacity:1;vector-effect:none;fill:#000000;fill-opacity:1;fill-rule:nonzero;stroke:none;stroke-width:2;stroke-linecap:round;stroke-linejoin:round;stroke-miterlimit:4;stroke-dasharray:none;stroke-dashoffset:0;stroke-opacity:1;color-rendering:auto;image-rendering:auto;shape-rendering:auto;text-rendering:auto;enable-background:accumulate" transform="matrix(0.26458333,0,0,0.26458333,0,288.53332)"/>
</g>
</svg>